<?xml version="1.0" encoding="UTF-8" standalone="no"?>
<!DOCTYPE svg PUBLIC "-//W3C//DTD SVG 1.1//EN" "http://www.w3.org/Graphics/SVG/1.1/DTD/svg11.dtd">
<svg width="100%" height="100%" viewBox="0 0 2250 1500" version="1.1" xmlns="http://www.w3.org/2000/svg" xmlns:xlink="http://www.w3.org/1999/xlink" xml:space="preserve" xmlns:serif="http://www.serif.com/" style="fill-rule:evenodd;clip-rule:evenodd;stroke-linejoin:round;stroke-miterlimit:2;">
    <g transform="matrix(2.08333,0,0,2.08333,0,0)">
        <g transform="matrix(1.76027,0,0,1.76027,-130.457,-931.819)">
            <path d="M501.742,833.325C491.324,833.325 483.002,830.754 476.778,825.612C470.554,820.47 467.442,812.081 467.442,800.445L467.442,774.06C464.195,779.473 459.662,783.6 453.844,786.441C448.026,789.282 442.343,790.703 436.795,790.703C428.136,790.703 420.457,788.606 413.759,784.411C407.062,780.217 401.818,774.162 398.03,766.246C394.241,758.331 392.347,748.893 392.347,737.934C392.347,726.974 394.241,717.536 398.03,709.621C401.818,701.705 407.062,695.583 413.759,691.253C420.457,686.923 428.136,684.758 436.795,684.758C442.343,684.758 448.026,686.145 453.844,688.919C459.662,691.693 464.195,695.853 467.442,701.401L471.501,687.6L498.292,687.6L498.292,790.703C498.292,794.898 498.867,798.382 500.017,801.156C501.167,803.929 504.516,805.316 510.063,805.316C525.532,805.316 546.701,794.728 546.701,794.728C544.454,811.704 528.688,833.325 501.742,833.325ZM446.74,766.754C452.694,766.754 457.869,764.42 462.267,759.752C466.664,755.084 468.863,747.608 468.863,737.325C468.863,726.906 466.664,719.532 462.267,715.202C457.869,710.872 452.694,708.708 446.74,708.708C440.651,708.708 435.408,711.278 431.011,716.42C426.613,721.562 424.415,728.733 424.415,737.934C424.415,747.405 426.613,754.576 431.011,759.447C435.408,764.318 440.651,766.754 446.74,766.754ZM501.742,826.525C518.032,826.525 529.539,817.249 535.499,806.706C527.782,809.449 518.191,812.116 510.063,812.116C500.706,812.116 493.156,826.525 501.742,826.525ZM549.032,670.957C544.025,670.957 539.729,669.164 536.144,665.579C532.558,661.993 530.765,657.697 530.765,652.691C530.765,647.549 532.558,643.219 536.144,639.701C539.729,636.183 544.025,634.424 549.032,634.424C554.173,634.424 558.503,636.183 562.021,639.701C565.539,643.219 567.298,647.549 567.298,652.691C567.298,657.697 565.539,661.993 562.021,665.579C558.503,669.164 554.173,670.957 549.032,670.957ZM533.404,788.268L533.404,711.143L514.326,711.143L514.326,687.6L564.457,687.6L564.457,788.268L533.404,788.268ZM583.535,788.268L583.535,652.691L614.385,652.691L614.385,725.756L648.076,687.6L684.609,687.6L645.234,729.612L687.653,788.268L651.12,788.268L624.938,751.735L614.385,762.898L614.385,788.268L583.535,788.268Z" style="fill:white;"/>
        </g>
        <g transform="matrix(1.76027,0,0,1.76027,-721.908,-289.173)">
            <path d="M658.074,308.256C657.904,309.589 657.652,310.903 657.311,312.193C655.278,319.899 643.097,330.634 637.938,340.815C633.621,349.335 631.537,359.182 630.877,373.666C602.631,371.12 606.585,332.69 600.269,311.113C589.748,275.168 557.69,247.721 518.814,258.422C470.177,271.811 460.013,337.222 479.675,377.33C503.543,426.019 584.527,423.7 584.527,423.7C580.559,450.74 492.047,472.411 445.327,425.146C398.607,377.881 398.14,290.263 445.327,243.463C492.162,197.012 579.347,197.232 626.199,243.51C634.973,252.177 646.144,266.215 652.742,280.987C657.775,279.975 664.784,279.9 672.443,283.803C666.839,285.394 660.743,285.901 658.183,289.897C663.787,289.886 671.207,291.463 679.286,297.433C670.158,298.389 659.531,296.919 658.083,308.183C658.08,308.207 658.077,308.232 658.074,308.256ZM631.872,337.741C634.645,332.269 595.242,269.73 606.795,309.203C609.968,320.041 610.577,335.109 613.924,347.791C615.865,355.144 618.7,361.746 624.675,364.948C625.787,353.656 628.076,345.234 631.872,337.741ZM551.792,411.825C557.542,381.952 598.72,373.398 633.304,403.023C660.693,426.485 668.574,466.05 643.573,500.491C630.33,518.658 612.482,526.165 592.072,528.295C570.757,530.521 545.297,525.972 519.506,519.866C467.939,507.656 462.566,493.266 421.334,499.432C440.702,479.757 463.193,472.312 487.082,469.306C500.654,467.598 514.353,468.124 527.879,469.896C540.302,471.523 552.28,474.75 563.697,477.053C574.137,479.159 583.806,481.455 592.821,480.792C599.635,480.29 606.22,479.13 611.543,473.616C626.296,458.35 623.987,438.16 612.018,424.728C601.35,412.756 576.719,405.713 551.792,411.825ZM442.262,491.174C452.247,491.494 460.221,493.444 468.716,496.302C481.514,500.606 495.582,507.201 521.075,513.237C546.062,519.153 539.258,478.257 526.994,476.65C514.044,474.954 500.927,474.429 487.932,476.064C471.849,478.088 456.412,482.195 442.262,491.174Z" style="fill:white;"/>
        </g>
    </g>
</svg>
