<?xml version="1.0" encoding="UTF-8" standalone="no"?>
<!DOCTYPE svg PUBLIC "-//W3C//DTD SVG 1.1//EN" "http://www.w3.org/Graphics/SVG/1.1/DTD/svg11.dtd">
<svg width="100%" height="100%" viewBox="0 0 2250 2250" version="1.1" xmlns="http://www.w3.org/2000/svg" xmlns:xlink="http://www.w3.org/1999/xlink" xml:space="preserve" xmlns:serif="http://www.serif.com/" style="fill-rule:evenodd;clip-rule:evenodd;stroke-linejoin:round;stroke-miterlimit:2;">
    <g transform="matrix(2.08333,0,0,2.08333,0,0)">
        <g transform="matrix(3.2506,0,0,3.2506,-1230.63,-639.142)">
            <path d="M658.074,308.256C657.904,309.589 657.652,310.903 657.311,312.193C655.278,319.899 643.097,330.634 637.938,340.815C633.621,349.335 631.537,359.182 630.877,373.666C602.631,371.12 606.585,332.69 600.269,311.113C589.748,275.168 557.69,247.721 518.814,258.422C470.177,271.811 460.013,337.222 479.675,377.33C503.543,426.019 584.527,423.7 584.527,423.7C580.559,450.74 492.047,472.411 445.327,425.146C398.607,377.881 398.14,290.263 445.327,243.463C492.162,197.012 579.347,197.232 626.199,243.51C634.973,252.177 646.144,266.215 652.742,280.987C657.775,279.975 664.784,279.9 672.443,283.803C666.839,285.394 660.743,285.901 658.183,289.897C663.787,289.886 671.207,291.463 679.286,297.433C670.158,298.389 659.531,296.919 658.083,308.183C658.08,308.207 658.077,308.232 658.074,308.256ZM551.792,411.825C557.542,381.952 598.72,373.398 633.304,403.023C660.693,426.485 668.574,466.05 643.573,500.491C630.33,518.658 612.482,526.165 592.072,528.295C570.757,530.521 545.297,525.972 519.506,519.866C467.939,507.656 462.566,493.266 421.334,499.432C440.702,479.757 463.193,472.312 487.082,469.306C500.654,467.598 514.353,468.124 527.879,469.896C540.302,471.523 552.28,474.75 563.697,477.053C574.137,479.159 583.806,481.455 592.821,480.792C599.635,480.29 606.22,479.13 611.543,473.616C626.296,458.35 623.987,438.16 612.018,424.728C601.35,412.756 576.719,405.713 551.792,411.825Z"/>
        </g>
    </g>
</svg>
